<svg
      xmlns="http://www.w3.org/2000/svg"
      x="0"
      y="0"
      enableBackground="new 0 0 512 512"
      version="1.1"
      viewBox="0 0 512 512"
      xmlSpace="preserve"
    >
      <g>
        <g>
          <path d="M68.284 40L165 40 165 0 0 0 0 165 40 165 40 68.284 177 205.284 205.284 177z"></path>
        </g>
      </g>
      <g fill="#28b5f5" fillOpacity="1">
        <g fill="#28b5f5" fillOpacity="1">
          <path
            fill="#28b5f5"
            fillOpacity="1"
            d="M205.284 335L177 306.716 40 443.716 40 347 0 347 0 512 165 512 165 472 68.284 472z"
          ></path>
        </g>
      </g>
      <g fill="#28b5f5" fillOpacity="1">
        <g fill="#28b5f5" fillOpacity="1">
          <path
            fill="#28b5f5"
            fillOpacity="1"
            d="M347 0L347 40 443.716 40 306.716 177 335 205.284 472 68.284 472 165 512 165 512 0z"
          ></path>
        </g>
      </g>
      <g>
        <g>
          <path d="M472 347L472 443.716 335 306.716 306.716 335 443.716 472 347 472 347 512 512 512 512 347z"></path>
        </g>
      </g>
    </svg>