<svg
      xmlns="http://www.w3.org/2000/svg"
      width="512"
      height="512"
      version="1.1"
      viewBox="0 0 135.467 135.467"
    >
      <g transform="translate(95.704 42.12)">
        <g
          fill="#fb0000"
          fillOpacity="1"
          transform="matrix(-.26458 0 0 -.26458 -41.389 12.194)"
        >
          <g fill="#fb0000" fillOpacity="1">
            <path
              fill="#fb0000"
              fillOpacity="1"
              d="M40 165L40 68.284 177 205.284 205.284 177 68.284 40 165 40 165 0 0 0 0 165z"
            ></path>
          </g>
        </g>
        <g transform="matrix(-.26458 0 0 -.26458 -41.389 174.498)">
          <g>
            <path d="M0 512L165 512 165 472 68.284 472 205.284 335 177 306.716 40 443.716 40 347 0 347z"></path>
          </g>
        </g>
        <g transform="matrix(-.26458 0 0 -.26458 120.915 12.194)">
          <g>
            <path d="M472 68.284L472 165 512 165 512 0 347 0 347 40 443.716 40 306.716 177 335 205.284z"></path>
          </g>
        </g>
        <g
          fill="#fb0000"
          fillOpacity="1"
          transform="matrix(-.26458 0 0 -.26458 120.915 174.498)"
        >
          <g fill="#fb0000" fillOpacity="1">
            <path
              fill="#fb0000"
              fillOpacity="1"
              d="M347 472L347 512 512 512 512 347 472 347 472 443.716 335 306.716 306.716 335 443.716 472z"
            ></path>
          </g>
        </g>
      </g>
    </svg>