<?xml version="1.0" standalone="no"?>
<!DOCTYPE svg PUBLIC "-//W3C//DTD SVG 20010904//EN"
 "http://www.w3.org/TR/2001/REC-SVG-20010904/DTD/svg10.dtd">
<svg version="1.0" xmlns="http://www.w3.org/2000/svg"
 width="700.000000pt" height="700.000000pt" viewBox="0 0 700.000000 700.000000"
 preserveAspectRatio="xMidYMid meet">
<metadata>
Created by potrace 1.14, written by Peter Selinger 2001-2017
</metadata>
<g transform="translate(0.000000,700.000000) scale(0.100000,-0.100000)"
fill="#000000" stroke="none">
<path d="M3308 6995 c-1 -1 -37 -5 -78 -8 -99 -8 -216 -23 -320 -42 -1289
-235 -2339 -1166 -2726 -2419 -19 -60 -36 -119 -38 -130 -2 -12 -9 -41 -16
-66 -7 -25 -14 -54 -16 -65 -2 -11 -9 -45 -15 -75 -25 -124 -29 -147 -35 -199
-3 -30 -7 -62 -9 -72 -3 -16 -9 -80 -20 -241 -3 -38 -2 -68 2 -68 5 0 22 13
40 28 42 36 49 42 188 152 66 52 127 100 135 107 15 12 147 117 224 178 21 17
235 187 475 379 240 191 450 359 467 372 l31 24 297 -79 296 -79 93 96 c119
123 270 281 337 352 29 30 125 131 214 224 205 215 218 229 416 436 91 95 228
239 306 319 l141 145 27 -22 c25 -19 151 -132 231 -207 18 -16 77 -70 130
-120 54 -49 113 -103 131 -120 56 -52 115 -107 244 -225 69 -63 132 -122 140
-130 8 -9 67 -63 130 -121 l115 -105 225 -73 c124 -40 392 -127 595 -194 204
-67 372 -121 375 -122 3 0 108 -72 233 -160 125 -88 235 -164 245 -170 9 -5
19 -12 22 -16 3 -3 66 -47 140 -99 74 -51 164 -114 200 -140 91 -65 93 -67 85
-41 -3 11 -9 33 -11 48 -12 65 -56 227 -94 342 -134 407 -333 772 -607 1114
-100 124 -323 355 -433 447 -36 30 -67 57 -70 60 -3 3 -23 18 -45 35 -22 16
-42 32 -45 35 -3 4 -50 38 -105 77 -274 192 -591 354 -900 458 -84 28 -226 70
-266 79 -13 3 -55 13 -94 22 -89 20 -91 20 -145 29 -25 4 -54 9 -65 11 -11 2
-58 9 -105 14 -47 6 -98 13 -115 16 -33 6 -551 14 -557 9z"/>
<path d="M3905 5704 c-8 -20 -15 -38 -15 -40 0 -2 -9 -23 -19 -47 -11 -23 -47
-114 -81 -202 -33 -88 -109 -284 -167 -435 -58 -151 -116 -302 -128 -335 -44
-118 -224 -581 -239 -615 -20 -45 -19 -75 -17 440 1 273 -2 431 -8 425 -14
-15 -70 -125 -384 -745 -157 -311 -295 -584 -308 -607 l-22 -42 -31 21 c-29
21 -123 98 -685 561 -119 98 -226 184 -239 190 -31 14 -12 25 -447 -256 -55
-36 -143 -92 -195 -126 -52 -34 -102 -66 -110 -71 -8 -6 -194 -125 -412 -266
l-398 -256 6 -77 c3 -42 8 -79 10 -83 2 -3 39 7 82 24 212 83 442 148 579 165
87 10 473 10 578 0 464 -46 971 -183 2065 -558 883 -302 1260 -421 1565 -494
192 -46 411 -88 520 -101 28 -3 75 -10 105 -15 54 -8 511 -5 620 5 184 16 457
85 631 159 30 12 40 24 53 63 45 128 114 395 132 509 4 28 9 57 10 65 3 14 17
122 30 225 2 22 7 104 10 183 5 123 4 142 -9 142 -9 0 -28 6 -44 14 -15 8 -64
31 -108 51 -44 20 -82 39 -85 44 -3 4 -104 85 -225 181 -121 96 -227 180 -235
187 -467 377 -884 703 -899 703 -12 0 -40 -125 -97 -430 -19 -102 -57 -286
-59 -288 -1 -2 -36 43 -76 100 -40 57 -77 108 -82 113 -7 9 -225 307 -595 813
-356 490 -540 736 -550 740 -6 2 -18 -13 -27 -34z"/>
<path d="M760 3103 c-19 -2 -80 -13 -134 -24 -211 -44 -381 -137 -504 -274
l-49 -56 29 -107 c15 -59 31 -122 35 -139 8 -46 20 -51 88 -43 61 8 556 5 610
-3 17 -3 62 -8 100 -12 90 -9 124 -13 215 -26 87 -12 292 -48 360 -64 14 -3
39 -8 55 -10 52 -9 395 -95 505 -126 165 -47 385 -118 950 -304 532 -176 673
-221 835 -269 93 -27 429 -112 478 -120 15 -3 35 -7 45 -10 9 -3 33 -7 52 -10
19 -3 60 -10 90 -16 30 -6 71 -13 90 -16 19 -3 76 -11 125 -19 50 -8 115 -17
145 -21 30 -3 66 -7 80 -10 154 -25 679 -24 800 1 14 3 39 7 55 10 17 3 37 6
45 8 8 2 33 7 55 12 67 12 293 72 410 108 l110 33 63 105 c34 57 89 157 122
221 l60 117 -47 -14 c-52 -16 -257 -60 -313 -69 -19 -2 -62 -8 -95 -12 -33 -3
-68 -8 -79 -10 -111 -21 -556 -21 -686 0 -14 3 -52 7 -85 11 -33 3 -69 8 -80
11 -31 6 -76 14 -120 20 -55 8 -369 78 -490 109 -292 76 -457 128 -1330 420
-418 140 -818 273 -890 295 -158 51 -450 139 -479 144 -12 3 -66 17 -121 31
-97 25 -289 68 -350 78 -99 17 -226 37 -265 42 -53 7 -440 14 -490 8z"/>
<path d="M257 2223 c-21 -6 -19 -14 34 -134 73 -167 170 -346 275 -505 l54
-82 122 -45 c148 -54 443 -145 588 -182 8 -2 58 -15 110 -29 181 -48 437 -108
513 -121 17 -3 66 -12 107 -20 41 -8 86 -17 100 -19 14 -2 36 -7 50 -10 14 -3
43 -8 65 -11 35 -5 111 -17 195 -30 14 -2 45 -6 70 -10 25 -3 56 -8 70 -10 54
-9 240 -33 315 -40 33 -4 71 -8 85 -10 66 -9 110 -15 165 -20 33 -3 78 -8 100
-10 22 -2 67 -7 100 -10 33 -4 74 -8 90 -10 17 -2 59 -6 95 -10 36 -3 81 -8
100 -10 19 -2 64 -7 100 -10 36 -3 81 -8 100 -10 19 -2 64 -6 100 -10 36 -3
76 -7 90 -10 14 -2 54 -7 90 -10 36 -3 94 -10 130 -15 36 -5 92 -12 125 -15
61 -7 101 -12 145 -20 14 -2 48 -7 75 -10 119 -14 287 -45 535 -100 46 -10
154 -40 223 -62 l79 -24 41 27 c23 15 100 72 172 128 189 148 582 542 520 523
-156 -49 -405 -93 -584 -104 -182 -11 -521 -5 -621 11 -14 2 -54 7 -90 11 -79
7 -125 13 -165 20 -16 2 -48 7 -70 10 -22 3 -50 8 -63 11 -12 2 -71 13 -130
24 -59 10 -116 21 -127 24 -11 2 -54 12 -95 21 -299 64 -554 140 -1240 368
-283 94 -526 175 -540 178 -14 4 -70 21 -125 39 -258 82 -493 147 -780 215
-115 28 -349 70 -440 81 -27 3 -61 7 -75 10 -14 2 -50 7 -80 10 -30 3 -71 8
-90 11 -44 6 -589 12 -613 6z"/>
<path d="M928 1123 c27 -38 198 -202 311 -297 334 -283 728 -503 1151 -646
180 -60 437 -121 619 -146 25 -3 57 -8 71 -10 145 -24 777 -24 819 0 3 2 33 6
66 10 62 6 83 10 175 27 94 18 104 20 145 31 22 5 47 11 55 13 8 2 35 8 60 15
25 7 52 14 60 15 101 22 436 153 595 233 123 62 120 60 113 67 -12 12 -391 89
-543 110 -22 3 -69 10 -105 15 -36 5 -87 12 -115 15 -27 3 -63 8 -80 10 -74
10 -182 22 -265 30 -36 3 -81 8 -100 10 -56 7 -117 13 -235 25 -60 6 -126 12
-145 15 -19 2 -62 7 -95 10 -130 12 -171 17 -195 20 -14 2 -59 7 -100 10 -41
4 -83 9 -92 10 -9 2 -48 7 -85 10 -37 4 -79 8 -93 11 -14 2 -50 6 -80 9 -30 3
-62 8 -70 10 -8 2 -44 7 -80 10 -36 3 -72 8 -80 10 -8 2 -40 7 -70 10 -30 3
-77 10 -105 15 -27 5 -70 12 -95 15 -41 5 -77 10 -135 21 -11 2 -69 13 -130
24 -210 38 -379 74 -555 120 -194 49 -554 151 -598 167 -12 5 -11 0 6 -24z"/>
</g>
</svg>
