<?xml version="1.0" encoding="UTF-8" standalone="no"?>
<!-- Created with Inkscape (http://www.inkscape.org/) -->

<svg
   xmlns:dc="http://purl.org/dc/elements/1.1/"
   xmlns:cc="http://creativecommons.org/ns#"
   xmlns:rdf="http://www.w3.org/1999/02/22-rdf-syntax-ns#"
   xmlns:svg="http://www.w3.org/2000/svg"
   xmlns="http://www.w3.org/2000/svg"
   xmlns:sodipodi="http://sodipodi.sourceforge.net/DTD/sodipodi-0.dtd"
   xmlns:inkscape="http://www.inkscape.org/namespaces/inkscape"
   width="50.00005mm"
   height="50.000038mm"
   viewBox="0 0 50.00005 50.000038"
   version="1.1"
   id="svg838"
   inkscape:version="0.92.3 (2405546, 2018-03-11)"
   sodipodi:docname="icon.svg">
  <defs
     id="defs832" />
  <sodipodi:namedview
     id="base"
     pagecolor="#ffffff"
     bordercolor="#666666"
     borderopacity="1.0"
     inkscape:pageopacity="0.0"
     inkscape:pageshadow="2"
     inkscape:zoom="2.8"
     inkscape:cx="121.69704"
     inkscape:cy="106.74455"
     inkscape:document-units="mm"
     inkscape:current-layer="layer1"
     showgrid="false"
     inkscape:window-width="1859"
     inkscape:window-height="1025"
     inkscape:window-x="61"
     inkscape:window-y="27"
     inkscape:window-maximized="1" />
  <metadata
     id="metadata835">
    <rdf:RDF>
      <cc:Work
         rdf:about="">
        <dc:format>image/svg+xml</dc:format>
        <dc:type
           rdf:resource="http://purl.org/dc/dcmitype/StillImage" />
        <dc:title></dc:title>
      </cc:Work>
    </rdf:RDF>
  </metadata>
  <g
     inkscape:label="Layer 1"
     inkscape:groupmode="layer"
     id="layer1"
     transform="translate(0,-246.99996)">
    <path
       style="fill:#000000;stroke-width:0.49474367"
       d="m 18.897029,287.9197 -2.038636,1.03767 c -1.478368,0.75234 -3.648627,1.09892 -5.562451,0.95189 1.26295,0.97168 2.625551,1.80647 4.064868,2.49029 0.617434,-0.11176 1.456786,-0.35933 2.145606,-0.64649 1.50762,-0.62833 1.887886,-0.61862 3.296956,0.0827 2.035171,1.01486 6.549393,1.00642 8.956561,-0.014 0.814912,-0.34546 1.319472,-0.52033 1.770433,-0.53072 v 0 c 0.450961,-0.0103 0.848059,0.14419 1.449007,0.4568 0.506793,0.26379 1.176903,0.49286 1.749247,0.6165 1.387526,-0.66481 2.703203,-1.47018 3.926377,-2.40347 -1.765734,0.10901 -3.653266,-0.24313 -5.148524,-1.00407 l -2.038636,-1.03767 -2.082559,1.03767 c -2.652202,1.32136 -5.753518,1.32136 -8.405689,0 z"
       id="path923-7"
       inkscape:connector-curvature="0"
       sodipodi:nodetypes="ccccccccccccccccc" />
    <path
       style="fill:#000000;stroke-width:0.49474367"
       d="m 18.910989,275.08069 -1.693953,1.02992 c -2.3133,1.40687 -6.523369,1.40687 -8.83667,0 l -1.693953,-1.02786 -1.897559,1.06352 -1.756629,0.9814 c 0.203726,0.90556 0.522352,1.76813 0.836272,2.64162 0.178569,-0.24704 0.553113,-0.45297 1.199927,-0.76068 1.42715,-0.67923 1.725785,-0.67537 3.046326,0.0403 1.96067,1.05973 7.406138,1.05346 9.395808,-0.0135 1.37524,-0.73821 1.607682,-0.73805 2.971911,0 1.976681,1.07162 7.412774,1.07056 9.411314,0 1.375228,-0.73821 1.60767,-0.73805 2.971911,0 1.972289,1.06606 7.418369,1.0713 9.383409,0.006 1.320458,-0.71522 1.61966,-0.71975 3.046838,-0.0408 0.41298,0.19648 0.712372,0.35108 0.92397,0.50128 0.298352,-0.84471 0.54597,-1.70648 0.741561,-2.58072 l -1.38648,-0.77721 -1.897039,-1.06352 -1.69395,1.02992 c -1.1749,0.71464 -2.528858,1.03042 -4.418338,1.03042 -1.8894,0 -3.243505,-0.31594 -4.418335,-1.03042 l -1.693952,-1.02992 -1.841233,1.03198 c -2.47137,1.38562 -6.38904,1.38562 -8.86044,0 z"
       id="path923-7-5"
       inkscape:connector-curvature="0"
       sodipodi:nodetypes="ccccccccccccccccccccsccccc" />
    <path
       style="fill:#000000;stroke-width:0.49474367"
       d="m 18.827269,281.54541 -1.892391,1.01182 v 0.009 c -2.447499,1.30755 -5.77247,1.30302 -8.43721,-0.013 -1.59832,-0.78939 -2.295413,-0.90398 -3.049943,-0.50125 -0.205988,0.10998 -0.373581,0.18423 -0.516248,0.2165 0.490177,0.94877 1.047279,1.86145 1.667082,2.73111 0.521393,0.0564 1.397863,0.27546 2.346627,0.60256 3.22675,1.11165 4.41881,1.11927 7.568529,0.047 2.37218,-0.80759 2.600121,-0.80309 5.399671,0.11472 2.816361,0.92374 3.03322,0.92763 5.94434,0.10541 1.661619,-0.46931 3.243568,-0.85317 3.516065,-0.85317 0.272455,0 1.854891,0.38412 3.51658,0.85317 2.928784,0.82746 3.114794,0.82302 6.08748,-0.14933 0.921462,-0.30144 1.770552,-0.523 2.378671,-0.6351 0.657449,-0.93594 1.24257,-1.92064 1.750282,-2.94556 -0.0594,-0.0281 -0.116462,-0.0536 -0.183452,-0.0894 -0.744558,-0.39759 -1.46337,-0.28062 -3.082499,0.50126 -2.704441,1.30431 -5.977543,1.30772 -8.411371,0.006 l -1.892911,-1.01182 -2.094962,1.01182 c -2.66941,1.28913 -5.849429,1.28913 -8.51886,0 z"
       id="path923-7-3"
       inkscape:connector-curvature="0"
       sodipodi:nodetypes="cccccccccccsccccccccccc" />
    <path
       inkscape:connector-curvature="0"
       style="opacity:1;fill:#000000;fill-opacity:1;fill-rule:evenodd;stroke:none;stroke-width:0.14792198;stroke-miterlimit:4;stroke-dasharray:none;stroke-opacity:1"
       d="M 25.00002,246.99996 A 25,25 0 0 0 0,271.99997 25,25 0 0 0 25.00002,297 25,25 0 0 0 50.00005,271.99997 25,25 0 0 0 25.00002,246.99996 Z m 0,2.5001 A 22.5,22.5 0 0 1 47.49994,271.99997 22.5,22.5 0 0 1 25.00002,294.49989 22.5,22.5 0 0 1 2.5001,271.99997 22.5,22.5 0 0 1 25.00002,249.50006 Z"
       id="path1389-3-6" />
  </g>
</svg>
